REM MD5 9d82d4ab02f27e4bdee328364cb32a3d
FILE "Pandemonium! (USA) (Rev 1).bin" BINARY
  TRACK 01 MODE2/2352
    INDEX 01 00:00:00
  TRACK 02 AUDIO
    INDEX 00 21:17:22
    INDEX 01 21:19:22
  TRACK 03 AUDIO
    INDEX 00 23:13:43
    INDEX 01 23:15:43
REM LEADOUT 23:21:39
